# xmcd
#
# Track frame offsets:
#	150
#	20753
#	36895
#	54368
#	68146
#	96563
#	115922
#	134820
#	154946
#	173450
#	191092
#	206926
#	226851
#	250086
#	264207
#	286382
#	300226
#
# Disc length: 4262 seconds
#
# Revision: 0
# Processed by: cddbd v1.5.1PL0 Copyright (c) Steve Scherf et al.
# Submitted via: audiograbber 1.83.01
#
DISCID=f110a411
DTITLE=Various Artist - Отражение. (2001)
DYEAR=1900
DGENRE=
TTITLE0=Розовый куст. - Андрей Кочелягин.
TTITLE1=На войне. - Михаил Долгополов.
TTITLE2=Перевал. - Перевал.
TTITLE3=Спор. - Андрей Кочелягин.
TTITLE4=Память. - Эпизод.
TTITLE5=Эхо войны. - Михаил Долгополов.
TTITLE6=Не ждите писем. - Иван Герасимов.
TTITLE7=Куликово поле. - Олег Горсткин.
TTITLE8=Частушки военных лет. - Парадокс.
TTITLE9=Песня о моем отце. - Олеся Макарова.
TTITLE10=Рота, подъем! - Перевал.
TTITLE11=Русский. - Олег Горсткин.
TTITLE12=Реквием по горящей колонне. - Эпизод.
TTITLE13=Курск. - Иван Герасимов.
TTITLE14=Говорят, что здесь климат суровый. - Анастасия Юсубова.
TTITLE15=Гимн Ханты-Мансийского округа. - Ирина Бархатова.
TTITLE16=Край родной. - Парадокс.
EXTD=
EXTT0=
EXTT1=
EXTT2=
EXTT3=
EXTT4=
EXTT5=
EXTT6=
EXTT7=
EXTT8=
EXTT9=
EXTT10=
EXTT11=
EXTT12=
EXTT13=
EXTT14=
EXTT15=
EXTT16=
PLAYORDER=
